<?xml version="1.0" encoding="UTF-8"?>
<svg width="31px" height="22px" viewBox="0 0 31 22" version="1.1" xmlns="http://www.w3.org/2000/svg" xmlns:xlink="http://www.w3.org/1999/xlink">
    <!-- Generator: Sketch 46.2 (44496) - http://www.bohemiancoding.com/sketch -->
    <title>tabby</title>
    <desc>Created with Sketch.</desc>
    <defs></defs>
    <g id="app" stroke="none" stroke-width="1" fill="none" fill-rule="evenodd">
        <g id="Artboard" transform="translate(-228.000000, -32.000000)" fill="#FFFFFF">
            <g id="tabby" transform="translate(228.000000, 32.000000)">
                <path d="M15.5822549,16.894349 C15.2740503,16.894349 14.8115225,16.894349 13.9750267,16.894349 C13.8811429,17.6906559 14.7733332,18.4361184 15.5822549,18.4928365 C15.5822549,19.4784854 15.5822549,20.6340241 15.5822549,22 C14.1988132,21.9878276 11.6660694,21.8710457 9.50253157,21.3556034 C8.17722584,21.0398619 7.20271842,20.5289859 6.42482567,19.8852802 L4.15948298,21.1333453 C3.81792772,21.3215213 3.35957923,21.1693853 3.13573297,20.7935398 C2.91188672,20.4176944 3.00730872,19.9604647 3.34886397,19.7722887 L5.28726787,18.7043468 C5.18175143,18.5702927 5.07959166,18.4332715 4.97998036,18.2936097 C4.89093425,18.168761 4.80565699,18.033052 4.72456377,17.8874677 L2.138343,18.7705127 C1.76930031,18.8965195 1.34433332,18.6671033 1.18915266,18.2580974 C1.033972,17.8490914 1.20734143,17.4153779 1.57638412,17.2893711 L4.13979732,16.4141136 C4.05684793,16.1140864 3.98673609,15.7972201 3.93099424,15.4671497 L1.71824714,15.6549846 C1.3296828,15.6879689 0.972839936,15.3625586 0.921216303,14.9281602 C0.86959267,14.4937619 1.14273708,14.1148734 1.53130142,14.0818891 L3.78197477,13.8908347 C3.7257052,11.5645325 4.35974683,8.91956793 6.09178163,6.92302664 C6.19504456,6.60793684 6.30821781,6.26432407 6.43130138,5.89218834 C8.07559474,0.92076665 8.53926682,0.0945874355 9.00760946,0.00711765997 C9.43276125,-0.0722856004 9.77190688,0.502819328 10.865022,2.2286098 C11.1279125,2.64365649 11.3611627,3.04060647 11.5647728,3.41945976 L11.5020668,6.54884854 C11.4942544,6.93873208 11.8425159,7.24998482 12.2799307,7.24405097 C12.7173455,7.23811713 13.0782735,6.91724374 13.0860859,6.52736019 L13.1502049,3.32745675 C13.6493682,3.29570481 14.1921804,3.28621612 14.8130697,3.28063546 L14.7313145,7.36068676 C14.7235021,7.75057031 15.0717636,8.06182304 15.5091784,8.0558892 C15.5337959,8.05555524 15.5581712,8.05422375 15.5822549,8.05193856 C15.5822549,12.8008524 15.5822549,11.4632296 15.5822549,16.894349 Z M10.1634815,16.2962963 C11.0437812,16.2962963 11.757405,15.5666863 11.757405,14.6666667 C11.757405,13.7666471 11.0437812,13.037037 10.1634815,13.037037 C9.28318191,13.037037 8.56955806,13.7666471 8.56955806,14.6666667 C8.56955806,15.5666863 9.28318191,16.2962963 10.1634815,16.2962963 Z M10.1635956,15.8074074 C9.54734174,15.8074074 9.04776931,15.2966804 9.04776931,14.6666667 C9.04776931,14.036653 9.54734174,13.5259259 10.1635956,13.5259259 C10.7798494,13.5259259 11.2794218,14.036653 11.2794218,14.6666667 C11.2794218,15.2966804 10.7798494,15.8074074 10.1635956,15.8074074 Z" id="Combined-Shape"></path>
                <path d="M30.2506357,16.894349 C29.9424311,16.894349 29.4799033,16.894349 28.6434075,16.894349 C28.5495237,17.6906559 29.441714,18.4361184 30.2506357,18.4928365 C30.2506357,19.4784854 30.2506357,20.6340241 30.2506357,22 C28.867194,21.9878276 26.3344502,21.8710457 24.1709123,21.3556034 C22.8456066,21.0398619 21.8710992,20.5289859 21.0932064,19.8852802 L18.8278638,21.1333453 C18.4863085,21.3215213 18.02796,21.1693853 17.8041138,20.7935398 C17.5802675,20.4176944 17.6756895,19.9604647 18.0172448,19.7722887 L19.9556486,18.7043468 C19.8501322,18.5702927 19.7479724,18.4332715 19.6483611,18.2936097 C19.559315,18.168761 19.4740378,18.033052 19.3929445,17.8874677 L16.8067238,18.7705127 C16.4376811,18.8965195 16.0127141,18.6671033 15.8575334,18.2580974 C15.7023528,17.8490914 15.8757222,17.4153779 16.2447649,17.2893711 L18.8081781,16.4141136 C18.7252287,16.1140864 18.6551169,15.7972201 18.599375,15.4671497 L16.3866279,15.6549846 C15.9980636,15.6879689 15.6412207,15.3625586 15.5895971,14.9281602 C15.5379735,14.4937619 15.8111179,14.1148734 16.1996822,14.0818891 L18.4503556,13.8908347 C18.394086,11.5645325 19.0281276,8.91956793 20.7601624,6.92302664 C20.8634253,6.60793684 20.9765986,6.26432407 21.0996822,5.89218834 C22.7439755,0.92076665 23.2076476,0.0945874355 23.6759902,0.00711765997 C24.101142,-0.0722856004 24.4402877,0.502819328 25.5334028,2.2286098 C25.7962933,2.64365649 26.0295435,3.04060647 26.2331536,3.41945976 L26.1704476,6.54884854 C26.1626352,6.93873208 26.5108967,7.24998482 26.9483115,7.24405097 C27.3857263,7.23811713 27.7466543,6.91724374 27.7544667,6.52736019 L27.8185857,3.32745675 C28.317749,3.29570481 28.8605612,3.28621612 29.4814505,3.28063546 L29.3996952,7.36068676 C29.3918828,7.75057031 29.7401444,8.06182304 30.1775592,8.0558892 C30.2021767,8.05555524 30.226552,8.05422375 30.2506357,8.05193856 C30.2506357,12.8008524 30.2506357,11.4632296 30.2506357,16.894349 Z M24.8318623,16.2962963 C25.712162,16.2962963 26.4257858,15.5666863 26.4257858,14.6666667 C26.4257858,13.7666471 25.712162,13.037037 24.8318623,13.037037 C23.9515627,13.037037 23.2379388,13.7666471 23.2379388,14.6666667 C23.2379388,15.5666863 23.9515627,16.2962963 24.8318623,16.2962963 Z M24.8319763,15.8074074 C24.2157225,15.8074074 23.7161501,15.2966804 23.7161501,14.6666667 C23.7161501,14.036653 24.2157225,13.5259259 24.8319763,13.5259259 C25.4482302,13.5259259 25.9478026,14.036653 25.9478026,14.6666667 C25.9478026,15.2966804 25.4482302,15.8074074 24.8319763,15.8074074 Z" id="Combined-Shape" transform="translate(22.917524, 11.000000) scale(-1, 1) translate(-22.917524, -11.000000) "></path>
            </g>
        </g>
    </g>
</svg>