<?xml version="1.0" encoding="UTF-8"?>
<svg width="198px" height="98px" viewBox="0 0 198 98" version="1.1" xmlns="http://www.w3.org/2000/svg" xmlns:xlink="http://www.w3.org/1999/xlink">
    <!-- Generator: Sketch 46.2 (44496) - http://www.bohemiancoding.com/sketch -->
    <title>logo mark</title>
    <desc>Created with Sketch.</desc>
    <defs></defs>
    <g id="app" stroke="none" stroke-width="1" fill="none" fill-rule="evenodd">
        <g id="01-login-username" transform="translate(-410.000000, -657.000000)" fill="#FFFFFF">
            <g id="logo-mark" transform="translate(409.000000, 657.000000)">
                <g id="logo" transform="translate(65.909091, 0.000000)">
                    <path d="M34.0884858,37.5236057 C33.3959155,37.5236057 32.3565637,37.5236057 30.476864,37.5236057 C30.2658967,39.2922626 32.2707481,40.9479903 34.0884858,41.0739655 C34.0884858,43.2631649 34.0884858,45.8297023 34.0884858,48.8636364 C30.9797373,48.8366006 25.2883785,48.5772194 20.4266667,47.4323836 C17.4456886,46.7304229 15.2545123,45.5942188 13.5056683,44.1625552 L8.41400403,46.9798374 C7.64748497,47.403962 6.62396995,47.0703449 6.12791926,46.2346826 C5.63186856,45.3990204 5.85112649,44.3777613 6.61764555,43.9536366 L10.9601684,41.5508639 C10.7210499,41.2508525 10.4896097,40.9441395 10.2639879,40.6314678 C10.0630113,40.35295 9.87057843,40.0500983 9.68763456,39.7251289 L3.87375659,41.7220499 C3.0452342,42.0066265 2.09520068,41.5003463 1.75179734,40.5912413 C1.408394,39.6821363 1.80166069,38.7144662 2.63018308,38.4298895 L8.37584372,36.4563994 C8.18967849,35.7907642 8.03229514,35.0878162 7.90712535,34.3556018 L2.93205837,34.7870375 C2.05930132,34.8627233 1.25996814,34.1416478 1.14669775,33.1764703 C1.03342735,32.2112929 1.64911294,31.3675065 2.52186999,31.2918207 L7.57196697,30.8538746 C7.44525261,25.6866704 8.86992786,19.811395 12.7623298,15.3765571 C12.9943732,14.6767192 13.2486861,13.9135297 13.5252687,13.0869886 C17.2201799,2.04509122 18.262103,0.21008573 19.3145213,0.0158088522 C20.269885,-0.160551695 21.0319832,1.11679913 23.4883354,4.94990813 C24.0863061,5.8830345 24.6160325,6.77497735 25.0775146,7.6257367 L24.9503408,14.6064609 C24.934384,15.4823482 25.7091914,16.1828607 26.6809215,16.1710993 C27.6526516,16.1593379 28.45333,15.4397565 28.4692868,14.5638692 L28.5999426,7.39201171 C29.7315422,7.32007905 30.9626614,7.29888626 32.3730269,7.28642028 L32.2068218,16.4096139 C32.1908651,17.2855013 32.9656724,17.9860137 33.9374025,17.9742524 C33.9882615,17.9736368 34.0386519,17.9710823 34.0884858,17.9666679 C34.0884858,28.4161689 34.0884858,25.4923144 34.0884858,37.5236057 Z M21.9118953,36.1952862 C23.8900272,36.1952862 25.4936199,34.574768 25.4936199,32.5757576 C25.4936199,30.5767471 23.8900272,28.956229 21.9118953,28.956229 C19.9337635,28.956229 18.3301708,30.5767471 18.3301708,32.5757576 C18.3301708,34.574768 19.9337635,36.1952862 21.9118953,36.1952862 Z M21.9121515,35.1094276 C20.5273602,35.1094276 19.404765,33.9750649 19.404765,32.5757576 C19.404765,31.1764503 20.5273602,30.0420875 21.9121515,30.0420875 C23.2969429,30.0420875 24.419538,31.1764503 24.419538,32.5757576 C24.419538,33.9750649 23.2969429,35.1094276 21.9121515,35.1094276 Z" id="Combined-Shape"></path>
                    <path d="M67.0461278,37.5236057 C66.3535575,37.5236057 65.3142058,37.5236057 63.434506,37.5236057 C63.2235387,39.2922626 65.2283901,40.9479903 67.0461278,41.0739655 C67.0461278,43.2631649 67.0461278,45.8297023 67.0461278,48.8636364 C63.9373793,48.8366006 58.2460205,48.5772194 53.3843088,47.4323836 C50.4033306,46.7304229 48.2121544,45.5942188 46.4633104,44.1625552 L41.371646,46.9798374 C40.605127,47.403962 39.581612,47.0703449 39.0855613,46.2346826 C38.5895106,45.3990204 38.8087685,44.3777613 39.5752876,43.9536366 L43.9178104,41.5508639 C43.6786919,41.2508525 43.4472517,40.9441395 43.2216299,40.6314678 C43.0206533,40.35295 42.8282204,40.0500983 42.6452766,39.7251289 L36.8313986,41.7220499 C36.0028762,42.0066265 35.0528427,41.5003463 34.7094394,40.5912413 C34.366036,39.6821363 34.7593027,38.7144662 35.5878251,38.4298895 L41.3334857,36.4563994 C41.1473205,35.7907642 40.9899372,35.0878162 40.8647674,34.3556018 L35.8897004,34.7870375 C35.0169433,34.8627233 34.2176102,34.1416478 34.1043398,33.1764703 C33.9910694,32.2112929 34.606755,31.3675065 35.479512,31.2918207 L40.529609,30.8538746 C40.4028946,25.6866704 41.8275699,19.811395 45.7199718,15.3765571 C45.9520152,14.6767192 46.2063281,13.9135297 46.4829107,13.0869886 C50.177822,2.04509122 51.219745,0.21008573 52.2721634,0.0158088522 C53.227527,-0.160551695 53.9896252,1.11679913 56.4459774,4.94990813 C57.0439481,5.8830345 57.5736745,6.77497735 58.0351566,7.6257367 L57.9079828,14.6064609 C57.892026,15.4823482 58.6668334,16.1828607 59.6385635,16.1710993 C60.6102936,16.1593379 61.410972,15.4397565 61.4269288,14.5638692 L61.5575847,7.39201171 C62.6891842,7.32007905 63.9203034,7.29888626 65.3306689,7.28642028 L65.1644639,16.4096139 C65.1485071,17.2855013 65.9233144,17.9860137 66.8950445,17.9742524 C66.9459035,17.9736368 66.9962939,17.9710823 67.0461278,17.9666679 C67.0461278,28.4161689 67.0461278,25.4923144 67.0461278,37.5236057 Z M54.8695374,36.1952862 C56.8476692,36.1952862 58.4512619,34.574768 58.4512619,32.5757576 C58.4512619,30.5767471 56.8476692,28.956229 54.8695374,28.956229 C52.8914055,28.956229 51.2878128,30.5767471 51.2878128,32.5757576 C51.2878128,34.574768 52.8914055,36.1952862 54.8695374,36.1952862 Z M54.8697936,35.1094276 C53.4850022,35.1094276 52.3624071,33.9750649 52.3624071,32.5757576 C52.3624071,31.1764503 53.4850022,30.0420875 54.8697936,30.0420875 C56.2545849,30.0420875 57.37718,31.1764503 57.37718,32.5757576 C57.37718,33.9750649 56.2545849,35.1094276 54.8697936,35.1094276 Z" id="Combined-Shape" transform="translate(50.569730, 24.431818) scale(-1, 1) translate(-50.569730, -24.431818) "></path>
                    <path d="M7.79345176,56.4853896 C7.79345176,56.0324675 7.43062812,55.6818182 6.99523975,55.6818182 L0.798212005,55.6818182 C0.348310693,55.6818182 0,56.0324675 0,56.4853896 C0,56.9237013 0.348310693,57.3035714 0.798212005,57.3035714 L3.0912574,57.3035714 L3.0912574,65.1055195 C3.0912574,65.5584416 3.45408104,65.9090909 3.88946941,65.9090909 C4.33937072,65.9090909 4.68768141,65.5584416 4.68768141,65.1055195 L4.68768141,57.3035714 L6.99523975,57.3035714 C7.43062812,57.3035714 7.79345176,56.9237013 7.79345176,56.4853896 Z M14.9918728,65.3977273 L14.2807384,63.4983766 L10.7540927,63.4983766 L10.0429583,65.3977273 C9.91234181,65.7191558 9.60756995,65.9090909 9.28828515,65.9090909 C9.18669453,65.9090909 9.09961686,65.8944805 9.01253918,65.8652597 C8.59166376,65.7045455 8.38848253,65.237013 8.53361198,64.8133117 L11.7409729,56.2077922 C11.8715895,55.8863636 12.1908743,55.6818182 12.5101591,55.6964286 C12.8439568,55.6818182 13.1487287,55.8863636 13.2793452,56.2077922 L16.4867061,64.8133117 C16.6318356,65.237013 16.4286544,65.7045455 16.0077789,65.8652597 C15.9352142,65.8944805 15.8336236,65.9090909 15.732033,65.9090909 C15.4127482,65.9090909 15.1079763,65.7191558 14.9918728,65.3977273 Z M11.3346105,61.8912338 L13.6857077,61.8912338 L12.5101591,58.75 L11.3346105,61.8912338 Z M19.2731917,65.9090909 C18.8378033,65.9090909 18.4749797,65.5438312 18.4749797,65.1055195 L18.4749797,56.4853896 C18.4749797,56.0324675 18.8378033,55.6818182 19.2731917,55.6818182 L21.33403,55.6818182 C22.8578892,55.6818182 24.0914896,56.9237013 24.0914896,58.4577922 C24.0914896,59.086039 23.8883084,59.6558442 23.5399977,60.1233766 C24.4107744,60.6785714 25.0058052,61.6574675 25.0058052,62.7678571 C25.0058052,64.5064935 23.6125624,65.9090909 21.9000348,65.9090909 L19.3312435,65.9090909 C19.3167305,65.9090909 19.3167305,65.8944805 19.3167305,65.8944805 C19.2877046,65.8944805 19.2877046,65.9090909 19.2731917,65.9090909 Z M20.0859166,57.3035714 L20.0859166,59.6412338 L21.33403,59.6412338 C21.9725996,59.6412338 22.4805527,59.1006494 22.4805527,58.4577922 C22.4805527,57.8149351 21.9725996,57.3035714 21.33403,57.3035714 L20.0859166,57.3035714 Z M20.0859166,61.262987 L20.0859166,64.2873377 L21.9000348,64.2873377 C22.7272727,64.2727273 23.3948682,63.6152597 23.3948682,62.7678571 C23.3948682,61.9350649 22.7272727,61.2775974 21.9000348,61.262987 L20.0859166,61.262987 Z M27.8938813,65.9090909 C27.458493,65.9090909 27.0956693,65.5438312 27.0956693,65.1055195 L27.0956693,56.4853896 C27.0956693,56.0324675 27.458493,55.6818182 27.8938813,55.6818182 L29.9547196,55.6818182 C31.4785789,55.6818182 32.7121793,56.9237013 32.7121793,58.4577922 C32.7121793,59.086039 32.508998,59.6558442 32.1606873,60.1233766 C33.0314641,60.6785714 33.6264948,61.6574675 33.6264948,62.7678571 C33.6264948,64.5064935 32.2332521,65.9090909 30.5207245,65.9090909 L27.9519331,65.9090909 C27.9374202,65.9090909 27.9374202,65.8944805 27.9374202,65.8944805 C27.9083943,65.8944805 27.9083943,65.9090909 27.8938813,65.9090909 Z M28.7066063,57.3035714 L28.7066063,59.6412338 L29.9547196,59.6412338 C30.5932892,59.6412338 31.1012423,59.1006494 31.1012423,58.4577922 C31.1012423,57.8149351 30.5932892,57.3035714 29.9547196,57.3035714 L28.7066063,57.3035714 Z M28.7066063,61.262987 L28.7066063,64.2873377 L30.5207245,64.2873377 C31.3479624,64.2727273 32.0155579,63.6152597 32.0155579,62.7678571 C32.0155579,61.9350649 31.3479624,61.2775974 30.5207245,61.262987 L28.7066063,61.262987 Z M41.8843608,55.9448052 C41.5360502,55.6818182 41.04261,55.7548701 40.766864,56.1201299 L38.2851504,59.538961 L35.8034367,56.1201299 C35.5567166,55.7548701 35.0632764,55.6818182 34.7004528,55.9448052 C34.3376292,56.2077922 34.2650644,56.7045455 34.5408104,57.0551948 L37.4869383,61.1607143 L37.4869383,65.1055195 C37.4869383,65.5584416 37.8642749,65.9090909 38.2851504,65.9090909 C38.7350517,65.9090909 39.0833624,65.5584416 39.0833624,65.1055195 L39.0833624,61.1607143 L42.0585162,57.0551948 C42.3052363,56.7045455 42.2326715,56.2077922 41.8843608,55.9448052 Z M50.0551492,65.9090909 C50.2583304,65.9090909 50.4179728,65.7483766 50.4179728,65.5584416 C50.4179728,65.3538961 50.2583304,65.1931818 50.0551492,65.1931818 L45.1933124,65.1931818 L45.1933124,56.0324675 C45.1933124,55.8425325 45.03367,55.6818182 44.8304888,55.6818182 C44.6418205,55.6818182 44.4821781,55.8425325 44.4821781,56.0324675 L44.4821781,65.5584416 C44.4821781,65.7483766 44.6418205,65.9090909 44.8304888,65.9090909 L50.0551492,65.9090909 Z M59.1112272,65.6753247 L58.2114246,63.2646104 L53.581795,63.2646104 L52.6819923,65.6753247 C52.6239406,65.8214286 52.493324,65.9090909 52.3481946,65.9090909 C52.3191687,65.9090909 52.2611169,65.8944805 52.2175781,65.8944805 C52.0434227,65.8214286 51.9418321,65.6022727 52.0143968,65.4269481 L55.5410426,55.9448052 C55.5990944,55.8133117 55.7442238,55.7256494 55.8893533,55.7256494 C56.0489957,55.7256494 56.1941252,55.8133117 56.237664,55.9448052 L59.7643098,65.4269481 C59.8368745,65.6022727 59.7497968,65.8214286 59.5756415,65.8944805 C59.5175897,65.8944805 59.4885638,65.9090909 59.445025,65.9090909 C59.3144085,65.9090909 59.169279,65.8214286 59.1112272,65.6753247 Z M55.9038662,57.0551948 L53.843028,62.5487013 L57.9501916,62.5487013 L55.9038662,57.0551948 Z M62.0283293,65.5584416 L62.0283293,56.0324675 C62.0283293,55.8425325 62.1879717,55.6818182 62.37664,55.6818182 L64.6406595,55.6818182 C66.0339022,55.6818182 67.165912,56.8214286 67.165912,58.2386364 C67.165912,59.0422078 66.7740625,59.7581169 66.1935446,60.2256494 C67.3400673,60.6201299 68.1818182,61.7012987 68.1818182,62.987013 C68.1818182,64.6087662 66.8756531,65.9090909 65.2792291,65.9090909 L62.362127,65.9090909 C62.1734587,65.9090909 62.0283293,65.7483766 62.0283293,65.5584416 Z M62.7394636,65.1931818 L65.2792291,65.1931818 C66.4838036,65.1931818 67.4561709,64.2142857 67.4706838,62.987013 C67.4561709,61.7743506 66.4838036,60.7808442 65.2792291,60.7808442 L62.7394636,60.7808442 L62.7394636,65.1931818 Z M62.7394636,60.0503247 L64.6406595,60.0503247 C65.6420527,60.0503247 66.4547777,59.2321429 66.4547777,58.2386364 C66.4547777,57.2159091 65.6420527,56.3977273 64.6406595,56.3977273 L62.7394636,56.3977273 L62.7394636,60.0503247 Z" id="TABBYLAB"></path>
                </g>
                <g id="signature" transform="translate(0.000000, 86.363636)">
                    <path d="M7.94886364,3.40909091 L7.9375,3.40909091 C7.73295455,3.40909091 7.55113636,3.5 7.42613636,3.67045455 L5.16477273,6.80681818 L2.90340909,3.67045455 C2.78977273,3.5 2.58522727,3.40909091 2.40340909,3.40909091 L2.36931818,3.40909091 C2.02840909,3.40909091 1.74431818,3.69318182 1.74431818,4.03409091 L1.74431818,10.7386364 C1.74431818,11.0795455 2.02840909,11.3636364 2.36931818,11.3636364 C2.72159091,11.3636364 3.00568182,11.0795455 3.00568182,10.7386364 L3.00568182,5.95454545 L4.63068182,8.22727273 C4.75568182,8.39772727 4.94886364,8.48863636 5.15340909,8.48863636 L5.17613636,8.48863636 C5.38068182,8.48863636 5.5625,8.39772727 5.6875,8.22727273 L7.32386364,5.95454545 L7.32386364,10.7386364 C7.32386364,11.0795455 7.59659091,11.3636364 7.94886364,11.3636364 C8.28977273,11.3636364 8.58522727,11.0795455 8.58522727,10.7386364 L8.58522727,4.03409091 C8.58522727,3.69318182 8.28977273,3.42045455 7.94886364,3.40909091 Z M14.6420455,10.9659091 L14.0852273,9.48863636 L11.3238636,9.48863636 L10.7670455,10.9659091 C10.6647727,11.2159091 10.4261364,11.3636364 10.1761364,11.3636364 C10.0965909,11.3636364 10.0284091,11.3522727 9.96022727,11.3295455 C9.63068182,11.2045455 9.47159091,10.8409091 9.58522727,10.5113636 L12.0965909,3.81818182 C12.1988636,3.56818182 12.4488636,3.40909091 12.6988636,3.42045455 C12.9602273,3.40909091 13.1988636,3.56818182 13.3011364,3.81818182 L15.8125,10.5113636 C15.9261364,10.8409091 15.7670455,11.2045455 15.4375,11.3295455 C15.3806818,11.3522727 15.3011364,11.3636364 15.2215909,11.3636364 C14.9715909,11.3636364 14.7329545,11.2159091 14.6420455,10.9659091 Z M11.7784091,8.23863636 L13.6193182,8.23863636 L12.6988636,5.79545455 L11.7784091,8.23863636 Z M17.4261364,11.3636364 C17.0738636,11.3636364 16.8011364,11.0795455 16.8011364,10.7386364 L16.8011364,4.03409091 C16.8011364,3.68181818 17.0738636,3.40909091 17.4261364,3.40909091 L18.7670455,3.40909091 C20.9602273,3.40909091 22.7329545,5.19318182 22.7329545,7.375 C22.7329545,9.57954545 20.9602273,11.3636364 18.7670455,11.3636364 L17.4261364,11.3636364 Z M18.0625,4.67045455 L18.0625,10.1022727 L18.7670455,10.1022727 C20.2670455,10.0909091 21.4715909,8.88636364 21.4715909,7.375 C21.4715909,5.88636364 20.2670455,4.67045455 18.7670455,4.67045455 L18.0625,4.67045455 Z M24.4602273,11.3636364 L24.4715909,11.3522727 C24.4715909,11.3522727 24.4715909,11.3636364 24.4943182,11.3636364 L28.1761364,11.3636364 C28.5056818,11.3636364 28.8011364,11.0795455 28.8011364,10.7386364 C28.8011364,10.3863636 28.5056818,10.1022727 28.1761364,10.1022727 L25.0965909,10.1022727 L25.0965909,8.01136364 L27.7443182,8.01136364 C28.0852273,8.01136364 28.3693182,7.72727273 28.3693182,7.375 C28.3693182,7.04545455 28.0852273,6.75 27.7443182,6.75 L25.0965909,6.75 L25.0965909,4.67045455 L28.1761364,4.67045455 C28.5056818,4.67045455 28.8011364,4.38636364 28.8011364,4.03409091 C28.8011364,3.68181818 28.5056818,3.40909091 28.1761364,3.40909091 L24.4602273,3.40909091 C24.1079545,3.40909091 23.8352273,3.68181818 23.8352273,4.03409091 L23.8352273,10.7386364 C23.8352273,11.0795455 24.1079545,11.3636364 24.4602273,11.3636364 Z M43.0056818,3.54545455 C42.6761364,3.40909091 42.3125,3.55681818 42.1761364,3.875 L39.9602273,9.13636364 L38.4943182,5.64772727 C38.3806818,5.39772727 38.1420455,5.26136364 37.9034091,5.26136364 C37.6534091,5.26136364 37.4147727,5.39772727 37.3125,5.64772727 L35.8465909,9.13636364 L33.6193182,3.875 C33.4943182,3.55681818 33.1193182,3.40909091 32.8125,3.54545455 C32.4829545,3.67045455 32.3465909,4.04545455 32.4715909,4.35227273 L35.2670455,10.9772727 C35.2897727,11.0113636 35.3011364,11.0568182 35.3238636,11.0795455 L35.3238636,11.0909091 C35.3465909,11.1136364 35.3579545,11.1363636 35.3806818,11.1590909 C35.3920455,11.1818182 35.3920455,11.1818182 35.4034091,11.1931818 C35.4375,11.2045455 35.4488636,11.2272727 35.4829545,11.25 L35.4943182,11.25 C35.5170455,11.2727273 35.5625,11.3068182 35.5965909,11.3181818 C35.6079545,11.3181818 35.6079545,11.3181818 35.6193182,11.3295455 C35.6420455,11.3295455 35.6647727,11.3409091 35.6988636,11.3522727 L35.7329545,11.3522727 C35.7670455,11.3636364 35.8125,11.3636364 35.8465909,11.3636364 C35.8806818,11.3636364 35.9147727,11.3636364 35.9488636,11.3522727 L35.9829545,11.3522727 C36.0056818,11.3409091 36.0284091,11.3295455 36.0738636,11.3295455 C36.0738636,11.3181818 36.0852273,11.3181818 36.0852273,11.3181818 L36.0965909,11.3181818 C36.1193182,11.3068182 36.1534091,11.2727273 36.1875,11.25 L36.2102273,11.25 C36.2329545,11.2272727 36.2556818,11.2045455 36.2784091,11.1931818 C36.2784091,11.1818182 36.2897727,11.1818182 36.2897727,11.1590909 L36.3579545,11.0909091 C36.3579545,11.0909091 36.3579545,11.0795455 36.3693182,11.0795455 C36.3806818,11.0568182 36.4034091,11.0113636 36.4147727,10.9772727 L37.9034091,7.45454545 L39.3920455,10.9772727 C39.4034091,11.0113636 39.4147727,11.0568182 39.4375,11.0795455 C39.4375,11.0795455 39.4375,11.0909091 39.4602273,11.0909091 C39.4715909,11.1136364 39.4943182,11.1363636 39.5056818,11.1590909 C39.5170455,11.1818182 39.5170455,11.1818182 39.5284091,11.1931818 C39.5511364,11.2045455 39.5738636,11.2272727 39.6079545,11.25 L39.6193182,11.25 C39.6420455,11.2727273 39.6761364,11.3068182 39.7215909,11.3181818 C39.7329545,11.3181818 39.7329545,11.3181818 39.7443182,11.3295455 C39.7670455,11.3295455 39.7897727,11.3409091 39.8238636,11.3522727 L39.8579545,11.3522727 C39.8920455,11.3636364 39.9261364,11.3636364 39.9602273,11.3636364 C40.0056818,11.3636364 40.0397727,11.3636364 40.0738636,11.3522727 L40.0965909,11.3522727 C40.1306818,11.3409091 40.1647727,11.3295455 40.1875,11.3295455 C40.1875,11.3181818 40.1988636,11.3181818 40.1988636,11.3181818 L40.2102273,11.3181818 C40.2556818,11.3068182 40.2784091,11.2727273 40.3125,11.25 L40.3238636,11.25 C40.3465909,11.2272727 40.3806818,11.2045455 40.4034091,11.1931818 C40.4034091,11.1818182 40.4147727,11.1818182 40.4147727,11.1590909 C40.4375,11.1363636 40.4602273,11.1136364 40.4715909,11.0909091 L40.4829545,11.0795455 C40.5056818,11.0568182 40.5284091,11.0113636 40.5397727,10.9772727 L43.3238636,4.35227273 C43.4602273,4.04545455 43.3125,3.67045455 43.0056818,3.54545455 Z M44.3125,10.7386364 C44.3125,11.0909091 44.5852273,11.3636364 44.9375,11.3636364 C45.2784091,11.3636364 45.5738636,11.0909091 45.5738636,10.7386364 L45.5738636,4.03409091 C45.5738636,3.68181818 45.2784091,3.40909091 44.9375,3.40909091 C44.5852273,3.40909091 44.3125,3.68181818 44.3125,4.03409091 L44.3125,10.7386364 Z M52.6193182,4.03409091 C52.6193182,3.68181818 52.3352273,3.40909091 51.9943182,3.40909091 L47.1420455,3.40909091 C46.7897727,3.40909091 46.5170455,3.68181818 46.5170455,4.03409091 C46.5170455,4.375 46.7897727,4.67045455 47.1420455,4.67045455 L48.9375,4.67045455 L48.9375,10.7386364 C48.9375,11.0909091 49.2215909,11.3636364 49.5625,11.3636364 C49.9147727,11.3636364 50.1875,11.0909091 50.1875,10.7386364 L50.1875,4.67045455 L51.9943182,4.67045455 C52.3352273,4.67045455 52.6193182,4.375 52.6193182,4.03409091 Z M54.5511364,11.3636364 C54.9034091,11.3636364 55.1875,11.0909091 55.1875,10.7386364 L55.1875,8.01136364 L58.1306818,8.01136364 L58.1306818,10.7386364 C58.1306818,11.0909091 58.4034091,11.3636364 58.7556818,11.3636364 C59.1079545,11.3636364 59.3920455,11.0909091 59.3920455,10.7386364 L59.3920455,4.03409091 C59.3920455,3.68181818 59.1079545,3.40909091 58.7556818,3.40909091 C58.4034091,3.40909091 58.1306818,3.68181818 58.1306818,4.03409091 L58.1306818,6.76136364 L55.1875,6.76136364 L55.1875,4.03409091 C55.1875,3.68181818 54.9034091,3.40909091 54.5511364,3.40909091 C54.1988636,3.40909091 53.9261364,3.68181818 53.9261364,4.03409091 L53.9261364,10.7386364 C53.9261364,11.0909091 54.1988636,11.3636364 54.5511364,11.3636364 Z" id="MADE-WITH"></path>
                    <path d="M80.2159091,11.3636364 C80.5681818,11.3636364 80.8522727,11.0795455 80.8522727,10.7386364 L80.8522727,8.01136364 L83.5,8.01136364 C83.8409091,8.01136364 84.125,7.72727273 84.125,7.375 C84.125,7.04545455 83.8409091,6.75 83.5,6.75 L80.8522727,6.75 L80.8522727,4.67045455 L83.9318182,4.67045455 C84.2613636,4.67045455 84.5568182,4.38636364 84.5568182,4.03409091 C84.5568182,3.69318182 84.2613636,3.40909091 83.9318182,3.40909091 L80.2159091,3.40909091 C79.8636364,3.40909091 79.5909091,3.69318182 79.5909091,4.03409091 L79.5909091,10.7386364 C79.5909091,11.0795455 79.8636364,11.3636364 80.2159091,11.3636364 Z M90.7613636,10.0340909 C90.9431818,10.0909091 91.0909091,10.2272727 91.1590909,10.4204545 C91.2727273,10.75 91.0909091,11.1022727 90.7613636,11.2159091 C90.7159091,11.2272727 90.625,11.25 90.5113636,11.25 L90.5,11.25 C90.3863636,11.25 90.2159091,11.2272727 90.0568182,11.125 C89.9090909,11.0340909 89.7840909,10.8863636 89.6931818,10.7272727 C89.5340909,10.3977273 89.4545455,9.98863636 89.4545455,9.36363636 C89.4431818,9.14772727 89.3977273,9 89.3181818,8.875 C89.25,8.75 89.1136364,8.63636364 88.9772727,8.54545455 C88.7386364,8.38636364 88.4431818,8.29545455 88.3409091,8.27272727 L87,8.27272727 L87,10.7386364 C87,11.0795455 86.7159091,11.3636364 86.3636364,11.3636364 C86.0113636,11.3636364 85.7386364,11.0795455 85.7386364,10.7386364 L85.7386364,4.03409091 C85.7386364,3.68181818 86.0113636,3.40909091 86.3636364,3.40909091 L88.3977273,3.40909091 C89.75,3.40909091 90.8295455,4.5 90.8295455,5.85227273 C90.8295455,6.60227273 90.4886364,7.26136364 89.9431818,7.71590909 C90.0909091,7.82954545 90.2272727,7.96590909 90.3409091,8.13636364 C90.5681818,8.46590909 90.7159091,8.88636364 90.7159091,9.36363636 C90.7045455,9.70454545 90.7386364,9.92045455 90.7613636,10.0340909 Z M88.3977273,7.01136364 C89.0454545,7.01136364 89.5681818,6.48863636 89.5681818,5.85227273 C89.5681818,5.19318182 89.0454545,4.67045455 88.3977273,4.67045455 L87,4.67045455 L87,7.01136364 L88.3977273,7.01136364 Z M95.7954545,3.18181818 C96.8409091,3.18181818 97.8409091,3.64772727 98.5113636,4.39772727 C99.2159091,5.14772727 99.6590909,6.14772727 99.6590909,7.27272727 C99.6590909,8.39772727 99.2159091,9.40909091 98.5113636,10.1477273 C97.8409091,10.8863636 96.8409091,11.3636364 95.7954545,11.3636364 C94.7045455,11.3636364 93.7045455,10.8863636 93.0113636,10.1477273 C92.3068182,9.40909091 91.8863636,8.39772727 91.8863636,7.27272727 C91.8863636,6.14772727 92.3068182,5.14772727 93.0113636,4.39772727 C93.7045455,3.64772727 94.7045455,3.18181818 95.7954545,3.18181818 Z M97.5909091,9.25 C98.0568182,8.76136364 98.3636364,8.04545455 98.3636364,7.27272727 C98.3636364,6.5 98.0568182,5.78409091 97.5909091,5.28409091 C97.1136364,4.77272727 96.4772727,4.47727273 95.7954545,4.47727273 C95.0681818,4.47727273 94.4318182,4.77272727 93.9545455,5.28409091 C93.4772727,5.78409091 93.1818182,6.5 93.1818182,7.27272727 C93.1818182,8.04545455 93.4772727,8.76136364 93.9545455,9.25 C94.4318182,9.76136364 95.0681818,10.0681818 95.7954545,10.0681818 C96.4772727,10.0681818 97.1136364,9.76136364 97.5909091,9.25 Z M107.079545,3.40909091 L107.068182,3.40909091 C106.863636,3.40909091 106.681818,3.5 106.556818,3.67045455 L104.295455,6.80681818 L102.034091,3.67045455 C101.920455,3.5 101.715909,3.40909091 101.534091,3.40909091 L101.5,3.40909091 C101.159091,3.40909091 100.875,3.69318182 100.875,4.03409091 L100.875,10.7386364 C100.875,11.0795455 101.159091,11.3636364 101.5,11.3636364 C101.852273,11.3636364 102.136364,11.0795455 102.136364,10.7386364 L102.136364,5.95454545 L103.761364,8.22727273 C103.886364,8.39772727 104.079545,8.48863636 104.284091,8.48863636 L104.306818,8.48863636 C104.511364,8.48863636 104.693182,8.39772727 104.818182,8.22727273 L106.454545,5.95454545 L106.454545,10.7386364 C106.454545,11.0795455 106.727273,11.3636364 107.079545,11.3636364 C107.420455,11.3636364 107.715909,11.0795455 107.715909,10.7386364 L107.715909,4.03409091 C107.715909,3.69318182 107.420455,3.42045455 107.079545,3.40909091 Z M112.579545,10.2159091 C113.227273,10.7272727 114.261364,11.3409091 115.488636,11.3522727 C116.295455,11.3522727 117.034091,11.1136364 117.590909,10.7045455 C118.159091,10.2954545 118.568182,9.67045455 118.568182,8.94318182 C118.568182,8.59090909 118.465909,8.25 118.295455,7.97727273 C118.034091,7.55681818 117.625,7.26136364 117.159091,7.03409091 C116.704545,6.81818182 116.170455,6.67045455 115.590909,6.55681818 L115.568182,6.55681818 C114.954545,6.44318182 114.443182,6.26136364 114.147727,6.05681818 C114,5.95454545 113.897727,5.85227273 113.840909,5.76136364 C113.784091,5.67045455 113.761364,5.57954545 113.761364,5.44318182 C113.761364,5.20454545 113.886364,4.95454545 114.193182,4.72727273 C114.5,4.5 114.954545,4.34090909 115.465909,4.34090909 C116.159091,4.34090909 116.715909,4.68181818 117.295455,5.06818182 C117.568182,5.25 117.931818,5.17045455 118.102273,4.89772727 C118.284091,4.63636364 118.204545,4.27272727 117.943182,4.09090909 C117.363636,3.71590909 116.556818,3.18181818 115.465909,3.18181818 C114.727273,3.18181818 114.034091,3.39772727 113.5,3.78409091 C112.977273,4.17045455 112.590909,4.76136364 112.590909,5.44318182 C112.590909,5.78409091 112.681818,6.10227273 112.852273,6.375 C113.102273,6.77272727 113.477273,7.05681818 113.909091,7.26136364 C114.340909,7.46590909 114.840909,7.60227273 115.375,7.70454545 L115.397727,7.70454545 C116.068182,7.82954545 116.625,8.02272727 116.954545,8.23863636 C117.125,8.35227273 117.227273,8.46590909 117.295455,8.57954545 C117.363636,8.69318182 117.397727,8.79545455 117.397727,8.94318182 C117.397727,9.22727273 117.25,9.51136364 116.909091,9.76136364 C116.568182,10.0113636 116.056818,10.1818182 115.488636,10.1818182 C114.681818,10.1931818 113.818182,9.71590909 113.318182,9.30681818 C113.068182,9.10227273 112.693182,9.13636364 112.488636,9.38636364 C112.295455,9.63636364 112.329545,10.0113636 112.579545,10.2159091 Z M124.193182,10.9659091 L123.636364,9.48863636 L120.875,9.48863636 L120.318182,10.9659091 C120.215909,11.2159091 119.977273,11.3636364 119.727273,11.3636364 C119.647727,11.3636364 119.579545,11.3522727 119.511364,11.3295455 C119.181818,11.2045455 119.022727,10.8409091 119.136364,10.5113636 L121.647727,3.81818182 C121.75,3.56818182 122,3.40909091 122.25,3.42045455 C122.511364,3.40909091 122.75,3.56818182 122.852273,3.81818182 L125.363636,10.5113636 C125.477273,10.8409091 125.318182,11.2045455 124.988636,11.3295455 C124.931818,11.3522727 124.852273,11.3636364 124.772727,11.3636364 C124.522727,11.3636364 124.284091,11.2159091 124.193182,10.9659091 Z M121.329545,8.23863636 L123.170455,8.23863636 L122.25,5.79545455 L121.329545,8.23863636 Z M127.602273,6.02272727 L131.238636,11.0681818 C131.25,11.0909091 131.272727,11.1136364 131.295455,11.1363636 C131.409091,11.2727273 131.579545,11.3636364 131.761364,11.3636364 C132.102273,11.3636364 132.386364,11.0795455 132.386364,10.7386364 L132.386364,4.13636364 C132.386364,3.80681818 132.102273,3.52272727 131.761364,3.52272727 C131.420455,3.52272727 131.147727,3.80681818 131.147727,4.13636364 L131.147727,8.81818182 L127.477273,3.73863636 C127.284091,3.46590909 126.897727,3.40909091 126.613636,3.60227273 C126.443182,3.72727273 126.352273,3.93181818 126.363636,4.125 L126.363636,10.7386364 C126.363636,11.0795455 126.636364,11.3636364 126.988636,11.3636364 C127.318182,11.3636364 127.602273,11.0795455 127.602273,10.7386364 L127.602273,6.02272727 Z M138.011364,11.3636364 C138.363636,11.3636364 138.647727,11.0795455 138.647727,10.7386364 L138.647727,8.01136364 L141.295455,8.01136364 C141.636364,8.01136364 141.920455,7.72727273 141.920455,7.375 C141.920455,7.04545455 141.636364,6.75 141.295455,6.75 L138.647727,6.75 L138.647727,4.67045455 L141.727273,4.67045455 C142.056818,4.67045455 142.352273,4.38636364 142.352273,4.03409091 C142.352273,3.69318182 142.056818,3.40909091 141.727273,3.40909091 L138.011364,3.40909091 C137.659091,3.40909091 137.386364,3.69318182 137.386364,4.03409091 L137.386364,10.7386364 C137.386364,11.0795455 137.659091,11.3636364 138.011364,11.3636364 Z M148.556818,10.0340909 C148.738636,10.0909091 148.886364,10.2272727 148.954545,10.4204545 C149.068182,10.75 148.886364,11.1022727 148.556818,11.2159091 C148.511364,11.2272727 148.420455,11.25 148.306818,11.25 L148.295455,11.25 C148.181818,11.25 148.011364,11.2272727 147.852273,11.125 C147.704545,11.0340909 147.579545,10.8863636 147.488636,10.7272727 C147.329545,10.3977273 147.25,9.98863636 147.25,9.36363636 C147.238636,9.14772727 147.193182,9 147.113636,8.875 C147.045455,8.75 146.909091,8.63636364 146.772727,8.54545455 C146.534091,8.38636364 146.238636,8.29545455 146.136364,8.27272727 L144.795455,8.27272727 L144.795455,10.7386364 C144.795455,11.0795455 144.511364,11.3636364 144.159091,11.3636364 C143.806818,11.3636364 143.534091,11.0795455 143.534091,10.7386364 L143.534091,4.03409091 C143.534091,3.68181818 143.806818,3.40909091 144.159091,3.40909091 L146.193182,3.40909091 C147.545455,3.40909091 148.625,4.5 148.625,5.85227273 C148.625,6.60227273 148.284091,7.26136364 147.738636,7.71590909 C147.886364,7.82954545 148.022727,7.96590909 148.136364,8.13636364 C148.363636,8.46590909 148.511364,8.88636364 148.511364,9.36363636 C148.5,9.70454545 148.534091,9.92045455 148.556818,10.0340909 Z M146.193182,7.01136364 C146.840909,7.01136364 147.363636,6.48863636 147.363636,5.85227273 C147.363636,5.19318182 146.840909,4.67045455 146.193182,4.67045455 L144.795455,4.67045455 L144.795455,7.01136364 L146.193182,7.01136364 Z M154.840909,10.9659091 L154.284091,9.48863636 L151.522727,9.48863636 L150.965909,10.9659091 C150.863636,11.2159091 150.625,11.3636364 150.375,11.3636364 C150.295455,11.3636364 150.227273,11.3522727 150.159091,11.3295455 C149.829545,11.2045455 149.670455,10.8409091 149.784091,10.5113636 L152.295455,3.81818182 C152.397727,3.56818182 152.647727,3.40909091 152.897727,3.42045455 C153.159091,3.40909091 153.397727,3.56818182 153.5,3.81818182 L156.011364,10.5113636 C156.125,10.8409091 155.965909,11.2045455 155.636364,11.3295455 C155.579545,11.3522727 155.5,11.3636364 155.420455,11.3636364 C155.170455,11.3636364 154.931818,11.2159091 154.840909,10.9659091 Z M151.977273,8.23863636 L153.818182,8.23863636 L152.897727,5.79545455 L151.977273,8.23863636 Z M158.25,6.02272727 L161.886364,11.0681818 C161.897727,11.0909091 161.920455,11.1136364 161.943182,11.1363636 C162.056818,11.2727273 162.227273,11.3636364 162.409091,11.3636364 C162.75,11.3636364 163.034091,11.0795455 163.034091,10.7386364 L163.034091,4.13636364 C163.034091,3.80681818 162.75,3.52272727 162.409091,3.52272727 C162.068182,3.52272727 161.795455,3.80681818 161.795455,4.13636364 L161.795455,8.81818182 L158.125,3.73863636 C157.931818,3.46590909 157.545455,3.40909091 157.261364,3.60227273 C157.090909,3.72727273 157,3.93181818 157.011364,4.125 L157.011364,10.7386364 C157.011364,11.0795455 157.284091,11.3636364 157.636364,11.3636364 C157.965909,11.3636364 158.25,11.0795455 158.25,10.7386364 L158.25,6.02272727 Z M169.011364,11.3636364 C170.011364,11.3636364 170.920455,11.0340909 171.636364,10.4772727 C171.909091,10.2613636 171.954545,9.85227273 171.75,9.56818182 C171.522727,9.29545455 171.102273,9.25 170.840909,9.44318182 C170.329545,9.85227273 169.715909,10.0681818 169.011364,10.0681818 C168.227273,10.0681818 167.5,9.75 166.965909,9.25 C166.454545,8.75 166.136364,8.04545455 166.136364,7.27272727 C166.136364,6.5 166.454545,5.81818182 166.965909,5.29545455 C167.5,4.79545455 168.227273,4.47727273 169.011364,4.47727273 C169.715909,4.47727273 170.340909,4.69318182 170.840909,5.10227273 C171.102273,5.30681818 171.522727,5.26136364 171.75,4.97727273 C171.954545,4.69318182 171.909091,4.29545455 171.636364,4.06818182 C170.920455,3.51136364 170.011364,3.18181818 169.011364,3.18181818 C166.738636,3.19318182 164.852273,5.02272727 164.840909,7.27272727 C164.852273,9.53409091 166.738636,11.3636364 169.011364,11.3636364 Z M173.465909,10.7386364 C173.465909,11.0909091 173.738636,11.3636364 174.090909,11.3636364 C174.431818,11.3636364 174.727273,11.0909091 174.727273,10.7386364 L174.727273,4.03409091 C174.727273,3.68181818 174.431818,3.40909091 174.090909,3.40909091 C173.738636,3.40909091 173.465909,3.68181818 173.465909,4.03409091 L173.465909,10.7386364 Z M176.125,10.2159091 C176.772727,10.7272727 177.806818,11.3409091 179.034091,11.3522727 C179.840909,11.3522727 180.579545,11.1136364 181.136364,10.7045455 C181.704545,10.2954545 182.113636,9.67045455 182.113636,8.94318182 C182.113636,8.59090909 182.011364,8.25 181.840909,7.97727273 C181.579545,7.55681818 181.170455,7.26136364 180.704545,7.03409091 C180.25,6.81818182 179.715909,6.67045455 179.136364,6.55681818 L179.113636,6.55681818 C178.5,6.44318182 177.988636,6.26136364 177.693182,6.05681818 C177.545455,5.95454545 177.443182,5.85227273 177.386364,5.76136364 C177.329545,5.67045455 177.306818,5.57954545 177.306818,5.44318182 C177.306818,5.20454545 177.431818,4.95454545 177.738636,4.72727273 C178.045455,4.5 178.5,4.34090909 179.011364,4.34090909 C179.704545,4.34090909 180.261364,4.68181818 180.840909,5.06818182 C181.113636,5.25 181.477273,5.17045455 181.647727,4.89772727 C181.829545,4.63636364 181.75,4.27272727 181.488636,4.09090909 C180.909091,3.71590909 180.102273,3.18181818 179.011364,3.18181818 C178.272727,3.18181818 177.579545,3.39772727 177.045455,3.78409091 C176.522727,4.17045455 176.136364,4.76136364 176.136364,5.44318182 C176.136364,5.78409091 176.227273,6.10227273 176.397727,6.375 C176.647727,6.77272727 177.022727,7.05681818 177.454545,7.26136364 C177.886364,7.46590909 178.386364,7.60227273 178.920455,7.70454545 L178.943182,7.70454545 C179.613636,7.82954545 180.170455,8.02272727 180.5,8.23863636 C180.670455,8.35227273 180.772727,8.46590909 180.840909,8.57954545 C180.909091,8.69318182 180.943182,8.79545455 180.943182,8.94318182 C180.943182,9.22727273 180.795455,9.51136364 180.454545,9.76136364 C180.113636,10.0113636 179.602273,10.1818182 179.034091,10.1818182 C178.227273,10.1931818 177.363636,9.71590909 176.863636,9.30681818 C176.613636,9.10227273 176.238636,9.13636364 176.034091,9.38636364 C175.840909,9.63636364 175.875,10.0113636 176.125,10.2159091 Z M187.113636,11.3636364 C188.113636,11.3636364 189.022727,11.0340909 189.738636,10.4772727 C190.011364,10.2613636 190.056818,9.85227273 189.852273,9.56818182 C189.625,9.29545455 189.204545,9.25 188.943182,9.44318182 C188.431818,9.85227273 187.818182,10.0681818 187.113636,10.0681818 C186.329545,10.0681818 185.602273,9.75 185.068182,9.25 C184.556818,8.75 184.238636,8.04545455 184.238636,7.27272727 C184.238636,6.5 184.556818,5.81818182 185.068182,5.29545455 C185.602273,4.79545455 186.329545,4.47727273 187.113636,4.47727273 C187.818182,4.47727273 188.443182,4.69318182 188.943182,5.10227273 C189.204545,5.30681818 189.625,5.26136364 189.852273,4.97727273 C190.056818,4.69318182 190.011364,4.29545455 189.738636,4.06818182 C189.022727,3.51136364 188.113636,3.18181818 187.113636,3.18181818 C184.840909,3.19318182 182.954545,5.02272727 182.943182,7.27272727 C182.954545,9.53409091 184.840909,11.3636364 187.113636,11.3636364 Z M195.045455,3.18181818 C196.090909,3.18181818 197.090909,3.64772727 197.761364,4.39772727 C198.465909,5.14772727 198.909091,6.14772727 198.909091,7.27272727 C198.909091,8.39772727 198.465909,9.40909091 197.761364,10.1477273 C197.090909,10.8863636 196.090909,11.3636364 195.045455,11.3636364 C193.954545,11.3636364 192.954545,10.8863636 192.261364,10.1477273 C191.556818,9.40909091 191.136364,8.39772727 191.136364,7.27272727 C191.136364,6.14772727 191.556818,5.14772727 192.261364,4.39772727 C192.954545,3.64772727 193.954545,3.18181818 195.045455,3.18181818 Z M196.840909,9.25 C197.306818,8.76136364 197.613636,8.04545455 197.613636,7.27272727 C197.613636,6.5 197.306818,5.78409091 196.840909,5.28409091 C196.363636,4.77272727 195.727273,4.47727273 195.045455,4.47727273 C194.318182,4.47727273 193.681818,4.77272727 193.204545,5.28409091 C192.727273,5.78409091 192.431818,6.5 192.431818,7.27272727 C192.431818,8.04545455 192.727273,8.76136364 193.204545,9.25 C193.681818,9.76136364 194.318182,10.0681818 195.045455,10.0681818 C195.727273,10.0681818 196.363636,9.76136364 196.840909,9.25 Z" id="FROM-SAN-FRANCISCO"></path>
                    <g id="heart" transform="translate(64.772727, 3.409091)">
                        <path d="M8.38991504,0.700994051 C7.94129807,0.252166441 7.33271644,-3.86274905e-16 6.69812728,0 C6.06353811,1.93137452e-16 5.45495649,0.252166441 5.00633952,0.700994051 L4.54533822,1.16199534 L4.08433693,0.700994051 C3.14998835,-0.233354506 1.63511001,-0.233354494 0.700761435,0.700994076 C-0.233587135,1.63534265 -0.233587147,3.15022099 0.70076141,4.08456957 L1.1617627,4.54557087 L4.54533822,7.92914639 L7.92891375,4.54557087 L8.38991504,4.08456957 C8.83874265,3.6359526 9.09090909,3.02737098 9.09090909,2.39278181 C9.09090909,1.75819265 8.83874265,1.14961102 8.38991504,0.700994051 Z" id="Shape"></path>
                    </g>
                </g>
            </g>
        </g>
    </g>
</svg>